<svg id="visual" viewBox="0 0 900 600" width="900" height="600" xmlns="http://www.w3.org/2000/svg" xmlns:xlink="http://www.w3.org/1999/xlink" version="1.1"><rect x="0" y="0" width="900" height="600" fill="#140021"></rect><path d="M0 314L129 314L129 287L257 287L257 364L386 364L386 250L514 250L514 249L643 249L643 279L771 279L771 301L900 301L900 265L900 601L900 601L771 601L771 601L643 601L643 601L514 601L514 601L386 601L386 601L257 601L257 601L129 601L129 601L0 601Z" fill="#00a2ff"></path><path d="M0 406L129 406L129 392L257 392L257 427L386 427L386 429L514 429L514 357L643 357L643 418L771 418L771 458L900 458L900 433L900 601L900 601L771 601L771 601L643 601L643 601L514 601L514 601L386 601L386 601L257 601L257 601L129 601L129 601L0 601Z" fill="#0a74c6"></path><path d="M0 543L129 543L129 519L257 519L257 480L386 480L386 459L514 459L514 462L643 462L643 481L771 481L771 546L900 546L900 442L900 601L900 601L771 601L771 601L643 601L643 601L514 601L514 601L386 601L386 601L257 601L257 601L129 601L129 601L0 601Z" fill="#004a8f"></path></svg>